HIERARCHY
ROOT Hips
{
 OFFSET 0.000000 0.000000 0.000000
 CHANNELS 6 Xposition Yposition Zposition Yrotation Xrotation Zrotation
 JOINT Chest
 {
  OFFSET 0.000000 9.581000 -0.001100
  CHANNELS 3 Yrotation Xrotation Zrotation
  JOINT Chest2
  {
   OFFSET 0.000000 9.561100 0.002200
   CHANNELS 3 Yrotation Xrotation Zrotation
   JOINT Chest3
   {
    OFFSET 0.000000 9.521100 0.000000
    CHANNELS 3 Yrotation Xrotation Zrotation
    JOINT Chest4
    {
     OFFSET 0.000000 9.511400 0.000000
     CHANNELS 3 Yrotation Xrotation Zrotation
     JOINT Neck
     {
      OFFSET 0.000000 14.375100 0.000000
      CHANNELS 3 Yrotation Xrotation Zrotation
      JOINT Head
      {
       OFFSET 0.000000 8.901200 0.004600
       CHANNELS 3 Yrotation Xrotation Zrotation
       End Site
       {
        OFFSET 0.000000 16.962200 0.002400
       }
      }
     }
     JOINT RightCollar
     {
      OFFSET -2.920100 9.518800 0.000000
      CHANNELS 3 Yrotation Xrotation Zrotation
      JOINT RightShoulder
      {
       OFFSET -13.664500 0.000000 0.000000
       CHANNELS 3 Yrotation Xrotation Zrotation
       JOINT RightElbow
       {
        OFFSET 0.000000 -29.999200 0.000000
        CHANNELS 3 Yrotation Xrotation Zrotation
        JOINT RightWrist
        {
         OFFSET 0.000000 -24.253600 0.000000
         CHANNELS 3 Yrotation Xrotation Zrotation
         End Site
         {
          OFFSET 0.000000 -17.918900 0.000000
         }
        }
       }
      }
     }
     JOINT LeftCollar
     {
      OFFSET 2.920100 9.518800 0.000000
      CHANNELS 3 Yrotation Xrotation Zrotation
      JOINT LeftShoulder
      {
       OFFSET 13.664500 0.000000 0.000000
       CHANNELS 3 Yrotation Xrotation Zrotation
       JOINT LeftElbow
       {
        OFFSET 0.000000 -29.999200 0.000000
        CHANNELS 3 Yrotation Xrotation Zrotation
        JOINT LeftWrist
        {
         OFFSET 0.000000 -24.253600 0.000000
         CHANNELS 3 Yrotation Xrotation Zrotation
         End Site
         {
          OFFSET 0.000000 -17.918900 0.000000
         }
        }
       }
      }
     }
    }
   }
  }
 }
 JOINT RightHip
 {
  OFFSET -7.797300 0.005300 0.000500
  CHANNELS 3 Yrotation Xrotation Zrotation
  JOINT RightKnee
  {
   OFFSET 0.000000 -40.663400 -0.000500
   CHANNELS 3 Yrotation Xrotation Zrotation
   JOINT RightAnkle
   {
    OFFSET 0.000000 -39.523700 -0.000900
    CHANNELS 3 Yrotation Xrotation Zrotation
    JOINT RightToe
    {
     OFFSET 0.000000 -6.418000 14.485300
     CHANNELS 3 Yrotation Xrotation Zrotation
     End Site
     {
      OFFSET 0.000000 -1.465200 6.326400
     }
    }
   }
  }
 }
 JOINT LeftHip
 {
  OFFSET 7.797300 0.005300 0.000500
  CHANNELS 3 Yrotation Xrotation Zrotation
  JOINT LeftKnee
  {
   OFFSET 0.000000 -40.663400 -0.000500
   CHANNELS 3 Yrotation Xrotation Zrotation
   JOINT LeftAnkle
   {
    OFFSET 0.000000 -39.523700 -0.000900
    CHANNELS 3 Yrotation Xrotation Zrotation
    JOINT LeftToe
    {
     OFFSET 0.000000 -6.418000 14.485300
     CHANNELS 3 Yrotation Xrotation Zrotation
     End Site
     {
      OFFSET 0.000000 -1.465200 6.326400
     }
    }
   }
  }
 }
}
MOTION
Frames: 12
Frame Time: 0.008333
-23.436021 126.366116 56.511518 -173.743438 -26.859008 -1.445991 -2.047359 20.759482 0.179492 -0.264810 2.691000 0.064416 -0.431680 4.399367 0.098850 -1.743671 17.765163 0.203297 -1.854716 14.429685 0.921440 -2.143042 -10.564381 1.376581 -6.157086 -6.934525 -3.544467 4.226188 -3.338371 -2.176745 88.339375 -68.931329 -60.308411 2.453442 8.201528 -41.150218 -3.988357 -5.911474 2.431794 1.325715 -4.250007 3.914769 -89.179383 -65.377959 69.387006 -26.991177 9.046720 20.311208 -10.304855 -60.382607 3.598357 -42.101287 65.650295 -40.325089 32.181535 41.899435 20.731305 0.009780 0.000751 0.004333 -10.370523 -49.682118 -6.532140 16.895698 70.018113 7.869166 -0.184732 8.536025 6.654984 -0.001228 0.000393 -0.000544
-23.435881 126.365856 56.512616 -173.750094 -26.867584 -1.447388 -2.038036 20.764451 0.176346 -0.263890 2.692212 0.063994 -0.430233 4.401226 0.098164 -1.742644 17.768971 0.209775 -1.841123 14.443998 0.918656 -2.142292 -10.564924 1.388033 -6.178953 -6.940828 -3.545634 4.222643 -3.336071 -2.186067 88.377189 -68.943429 -60.324625 2.460056 8.202668 -41.145776 -3.991426 -5.917691 2.437623 1.333484 -4.251540 3.912177 -89.197990 -65.382499 69.395554 -26.994596 9.051476 20.305290 -10.310415 -60.379879 3.609611 -42.149868 65.625545 -40.375706 32.198096 41.932000 20.812892 0.005973 -0.000030 0.002646 -10.368003 -49.680574 -6.542555 16.928257 70.025069 7.915936 -0.180631 8.532041 6.646580 -0.002158 -0.000035 -0.000956
-23.435955 126.365416 56.513365 -173.752806 -26.875160 -1.449112 -2.034261 20.769283 0.170257 -0.262946 2.692456 0.063397 -0.428697 4.401605 0.097244 -1.731456 17.774280 0.205939 -1.840922 14.446787 0.930743 -2.131772 -10.545441 1.398780 -6.200723 -6.943593 -3.530774 4.213733 -3.336114 -2.196871 88.410644 -68.951100 -60.340865 2.472966 8.208457 -41.143708 -3.996998 -5.927263 2.454503 1.332414 -4.248995 3.911182 -89.226240 -65.384258 69.411333 -26.997961 9.059287 20.302258 -10.323675 -60.379281 3.624829 -42.203191 65.601304 -40.433187 32.221065 41.952256 20.857096 0.002217 -0.004746 0.000982 -10.370707 -49.681493 -6.549413 16.990008 70.031124 7.989799 -0.190046 8.529431 6.633936 -0.000469 -0.001189 -0.000208
-23.437492 126.364272 56.515110 -173.762775 -26.873958 -1.437804 -2.030473 20.765231 0.151237 -0.262131 2.691702 0.062700 -0.427329 4.400475 0.096133 -1.722625 17.778409 0.206761 -1.838531 14.450557 0.936262 -2.133197 -10.544526 1.407818 -6.215189 -6.944340 -3.522154 4.202270 -3.336737 -2.208296 88.441460 -68.943190 -60.354958 2.508194 8.213664 -41.142473 -4.002012 -5.929007 2.465779 1.336220 -4.257072 3.907446 -89.247129 -65.376960 69.415459 -26.994887 9.066596 20.304105 -10.398987 -60.406212 3.688202 -42.302309 65.574462 -40.575951 32.292827 41.970915 20.910422 -0.003469 -0.016352 -0.001537 -10.394749 -49.698335 -6.538766 17.044289 70.044273 8.032772 -0.189131 8.525300 6.620883 0.001245 -0.004078 0.000552
-23.436443 126.363476 56.515787 -173.766498 -26.875315 -1.444954 -2.026186 20.763853 0.148969 -0.260782 2.692739 0.067146 -0.427620 4.397999 0.092133 -1.720270 17.770704 0.189830 -1.830243 14.462770 0.957378 -2.128391 -10.535277 1.414254 -6.232278 -6.936539 -3.508477 4.201315 -3.332710 -2.206127 88.472113 -68.905233 -60.371593 2.480277 8.203719 -41.131357 -4.004447 -5.921929 2.489198 1.332779 -4.263305 3.901477 -89.253945 -65.363221 69.415161 -26.987389 9.070150 20.304751 -10.426149 -60.407124 3.718615 -42.397970 65.549263 -40.680502 32.347830 41.959923 20.971457 -0.005333 -0.010492 -0.002362 -10.417167 -49.702748 -6.516116 17.091774 70.051875 8.077865 -0.196059 8.518619 6.614427 0.003127 -0.003765 0.001385
-23.436266 126.362878 56.516159 -173.767299 -26.877249 -1.447993 -2.025592 20.763156 0.144627 -0.260598 2.693062 0.068498 -0.426542 4.398838 0.094731 -1.721825 17.767521 0.183265 -1.825903 14.466505 0.962801 -2.122522 -10.524839 1.424119 -6.240350 -6.939038 -3.508027 4.200094 -3.333720 -2.208658 88.457966 -68.898542 -60.349447 2.473955 8.204788 -41.114471 -4.020192 -5.936890 2.483808 1.334107 -4.256372 3.907186 -89.247999 -65.347931 69.413920 -26.981057 9.072888 20.300040 -10.491574 -60.412907 3.771655 -42.423370 65.554212 -40.736426 32.403626 41.944356 21.012482 -0.001147 -0.006282 -0.000508 -10.436218 -49.706188 -6.499395 17.122666 70.060354 8.104665 -0.201963 8.511492 6.607699 0.003901 -0.002829 0.001728
-23.437061 126.362538 56.516341 -173.766303 -26.879989 -1.445763 -2.028054 20.764643 0.138883 -0.260223 2.690637 0.061751 -0.425985 4.396980 0.092841 -1.720712 17.764472 0.175564 -1.818893 14.475409 0.980310 -2.120046 -10.519613 1.434237 -6.241867 -6.941512 -3.498324 4.203642 -3.343674 -2.214970 88.375805 -68.899704 -60.274029 2.466734 8.205319 -41.095434 -4.031898 -5.937713 2.490588 1.317222 -4.253551 3.907594 -89.228419 -65.331442 69.416396 -26.976658 9.073999 20.293278 -10.563580 -60.417597 3.817478 -42.394487 65.583852 -40.740503 32.406562 41.924225 21.022086 -0.001169 -0.002681 -0.000518 -10.453376 -49.709327 -6.489609 17.146405 70.068966 8.121970 -0.204853 8.503590 6.600492 0.003994 -0.002243 0.001770
-23.438187 126.362073 56.517284 -173.763360 -26.877724 -1.441602 -2.033825 20.761144 0.131665 -0.272924 2.687817 0.055581 -0.429732 4.394534 0.089672 -1.711173 17.762732 0.171845 -1.809653 14.482530 0.988570 -2.112222 -10.512364 1.440836 -6.233809 -6.946037 -3.494776 4.207214 -3.338538 -2.212315 88.336244 -68.897365 -60.241401 2.463018 8.205294 -41.086230 -4.029033 -5.934009 2.492326 1.296977 -4.254279 3.893793 -89.196238 -65.307420 69.407341 -26.975950 9.069361 20.290552 -10.574946 -60.421876 3.814667 -42.326738 65.621770 -40.681025 32.323625 41.908061 21.011029 -0.005457 -0.003033 -0.002418 -10.468064 -49.716490 -6.489494 17.152625 70.071466 8.134594 -0.202243 8.501283 6.582516 0.006670 -0.001378 0.002955
-23.438922 126.361551 56.519025 -173.755071 -26.870636 -1.441394 -2.052319 20.753435 0.120953 -0.274455 2.688353 0.056067 -0.426182 4.394333 0.089872 -1.758363 17.756749 0.153724 -1.779716 14.492487 0.994397 -2.083461 -10.506789 1.436127 -6.177914 -6.962358 -3.498437 4.207765 -3.324131 -2.205243 88.287960 -68.893494 -60.202609 2.458198 8.205089 -41.081616 -3.983878 -5.932890 2.487493 1.266672 -4.258834 3.863606 -89.169279 -65.265495 69.408927 -26.973337 9.077351 20.286570 -10.582718 -60.429811 3.810709 -42.312788 65.628979 -40.668615 32.287944 41.907639 21.005341 -0.009424 -0.006052 -0.004175 -10.481947 -49.725716 -6.489618 17.142018 70.073276 8.130419 -0.197493 8.496754 6.571621 0.007553 -0.000393 0.003346
-23.438582 126.361960 56.519583 -173.744316 -26.872482 -1.449193 -2.071679 20.757357 0.117590 -0.272372 2.685025 0.056145 -0.425281 4.396107 0.090258 -1.775147 17.752814 0.147281 -1.767705 14.493996 0.995572 -2.069380 -10.497911 1.435371 -6.155271 -6.961901 -3.498996 4.211540 -3.328004 -2.203456 88.211683 -68.892395 -60.146998 2.452422 8.197168 -41.067432 -3.972255 -5.936263 2.472976 1.266384 -4.256109 3.866557 -89.191390 -65.256472 69.438570 -26.974329 9.092245 20.276615 -10.610079 -60.425094 3.814655 -42.234877 65.651439 -40.596530 32.360113 41.911827 21.021183 -0.002701 0.000322 -0.001197 -10.503708 -49.724349 -6.481244 17.136139 70.075834 8.127266 -0.192917 8.492184 6.566289 0.006991 0.000324 0.003097
-23.439218 126.362694 56.520254 -173.736328 -26.876786 -1.449567 -2.085980 20.760255 0.111481 -0.270069 2.685059 0.055041 -0.433147 4.395097 0.089670 -1.779184 17.751844 0.141987 -1.757884 14.495314 0.996880 -2.063947 -10.501167 1.437572 -6.140261 -6.971528 -3.501706 4.212370 -3.317649 -2.198047 88.116083 -68.884948 -60.085601 2.449057 8.176679 -41.043063 -3.968042 -5.940044 2.462358 1.267127 -4.260777 3.854859 -89.162549 -65.231549 69.414202 -26.976342 9.095120 20.275611 -10.649161 -60.419183 3.828271 -42.141315 65.674271 -40.522083 32.374220 41.919702 21.024073 -0.004484 0.001334 -0.001987 -10.521146 -49.721281 -6.484412 17.162478 70.074254 8.150775 -0.190353 8.490012 6.565454 0.003310 0.000162 0.001466
-23.439275 126.363416 56.521487 -173.738346 -26.880095 -1.448127 -2.088345 20.750489 0.100534 -0.268687 2.696168 0.061435 -0.438095 4.393064 0.086695 -1.774390 17.754773 0.144498 -1.757903 14.493527 0.996165 -2.059153 -10.501921 1.436719 -6.134341 -6.982033 -3.503157 4.215764 -3.320754 -2.188142 88.045185 -68.866067 -60.030783 2.431452 8.170499 -41.039420 -3.963738 -5.947453 2.448866 1.254165 -4.272515 3.827497 -89.130724 -65.192805 69.384503 -26.979940 9.098694 20.280971 -10.652136 -60.416043 3.830564 -42.101779 65.688079 -40.476069 32.317131 41.929297 20.989635 -0.001246 -0.001893 -0.000552 -10.553221 -49.714824 -6.480020 17.183819 70.068772 8.172978 -0.182467 8.479742 6.555624 -0.001639 0.005043 -0.000726
